<?xml version="1.0" standalone="no"?>
<!DOCTYPE svg PUBLIC "-//W3C//DTD SVG 20010904//EN"
 "http://www.w3.org/TR/2001/REC-SVG-20010904/DTD/svg10.dtd">
<svg version="1.0" xmlns="http://www.w3.org/2000/svg"
 width="360.000000pt" height="360.000000pt" viewBox="0 0 360.000000 360.000000"
 preserveAspectRatio="xMidYMid meet">

<g transform="translate(0.000000,360.000000) scale(0.100000,-0.100000)"
fill="#000000" stroke="none">
<path d="M0 1800 l0 -1800 1800 0 1800 0 0 1800 0 1800 -1800 0 -1800 0 0
-1800z m2016 788 c38 -14 99 -44 135 -68 65 -45 169 -137 169 -150 0 -4 -12
-11 -26 -14 -21 -6 -35 2 -85 49 -224 207 -587 206 -820 -2 -33 -29 -63 -53
-67 -53 -5 0 -17 6 -27 14 -17 13 -16 16 31 61 138 135 307 198 514 191 79 -3
122 -10 176 -28z m-803 -186 c31 -47 43 -54 261 -147 131 -56 255 -128 286
-164 28 -34 40 -33 79 2 54 49 106 77 272 150 176 78 206 93 244 124 43 36 65
81 65 135 0 27 4 48 9 48 17 0 53 -113 58 -181 4 -53 2 -73 -15 -105 -25 -49
-60 -73 -228 -157 -113 -57 -199 -117 -166 -117 6 0 14 5 17 10 9 14 108 63
202 101 110 43 159 74 195 122 l31 42 -7 -43 c-19 -129 -80 -183 -310 -276
-178 -72 -182 -95 -6 -30 154 57 210 85 260 131 43 38 52 29 20 -22 -28 -45
-118 -106 -251 -168 -120 -57 -174 -100 -184 -148 -8 -34 -13 -35 -32 -11 -25
32 -43 71 -58 127 -23 90 5 188 74 263 17 18 31 35 31 38 0 11 -67 -32 -125
-81 -35 -30 -65 -49 -67 -43 -2 6 -17 -19 -32 -56 -16 -36 -32 -66 -36 -66 -4
0 -19 27 -34 61 -14 33 -30 57 -36 54 -5 -3 -25 10 -44 29 -39 38 -119 96
-135 96 -5 0 7 -18 28 -40 80 -86 95 -234 34 -341 -35 -63 -49 -70 -57 -31
-11 50 -60 90 -179 147 -146 70 -232 126 -257 167 -30 49 -24 61 13 27 39 -37
98 -68 192 -102 39 -14 101 -37 139 -51 120 -45 54 -2 -88 58 -214 91 -246
117 -286 235 -21 62 -19 95 4 57 34 -58 70 -86 149 -116 90 -35 207 -92 249
-121 37 -27 46 -23 17 7 -13 14 -82 55 -153 91 -199 100 -228 125 -249 214 -8
31 15 124 45 188 l22 46 5 -56 c4 -37 15 -69 34 -97z m-26 -551 c29 -193 159
-380 321 -458 57 -27 76 -42 86 -66 7 -18 12 -33 11 -35 -5 -7 -155 74 -211
114 -34 24 -82 66 -108 95 -85 95 -165 299 -166 422 l0 48 28 -19 c24 -18 29
-31 39 -101z m1283 8 c-37 -257 -179 -440 -409 -528 -34 -13 -51 -15 -51 -8 0
21 14 33 85 72 92 50 212 170 252 250 39 79 60 146 68 220 6 48 12 64 33 82
35 30 38 17 22 -88z m-698 -76 c25 -56 32 -65 38 -48 5 11 18 43 30 70 l22 50
22 -60 c12 -34 55 -111 94 -172 58 -88 73 -120 75 -152 1 -22 -4 -46 -10 -52
-11 -11 -33 19 -127 169 -49 78 -39 36 18 -80 58 -118 65 -142 43 -172 -12
-17 -14 -17 -34 1 -12 10 -36 54 -54 98 -38 94 -49 110 -49 70 0 -29 13 -75
45 -164 19 -52 9 -75 -49 -105 -34 -18 -39 -18 -71 -3 -19 9 -41 27 -50 40
-15 23 -14 29 8 89 26 68 46 181 30 163 -6 -5 -27 -56 -48 -113 -21 -56 -41
-105 -46 -107 -11 -8 -38 23 -45 51 -5 19 9 57 51 145 31 65 55 124 53 131 -2
6 -30 -31 -61 -83 -31 -52 -65 -107 -76 -123 -19 -28 -19 -28 -30 -7 -20 37
-2 87 75 205 40 63 81 139 91 170 9 31 19 56 21 56 2 0 17 -30 34 -67z m-6
-774 c-3 -17 -7 -104 -8 -193 0 -88 -3 -146 -5 -128 -3 19 -10 32 -19 32 -8 0
-14 -4 -14 -10 0 -5 -7 -10 -15 -10 -8 0 -15 -7 -15 -15 0 -8 -4 -15 -10 -15
-6 0 -9 64 -8 173 0 96 -2 179 -6 185 -5 9 9 12 50 12 l57 0 -7 -31z m171 20
c-16 -9 -18 -24 -17 -117 1 -59 0 -147 -1 -197 -2 -80 -3 -84 -8 -35 -6 53 -7
55 -38 58 -32 3 -32 3 -36 -50 -2 -29 -4 38 -5 150 l-2 202 63 0 c48 -1 58 -3
44 -11z m-848 -140 c43 -116 52 -134 62 -118 7 12 9 12 9 -1 0 -24 -17 -43
-33 -37 -8 3 -18 3 -21 -1 -16 -16 -45 -10 -60 12 -25 39 -27 74 -5 95 13 12
19 29 17 49 -2 28 -6 32 -33 33 -16 1 -33 1 -36 1 -3 -1 -26 5 -50 13 l-44 14
86 0 86 1 22 -61z m256 50 l-30 -8 1 -148 c1 -81 0 -134 -2 -118 -9 65 -13 73
-33 68 -10 -3 -28 0 -40 6 -20 11 -21 9 -23 -46 -1 -32 -4 5 -7 82 -4 77 -4
148 -2 158 3 15 15 17 85 16 63 -1 74 -3 51 -10z m-380 -296 c3 -12 14 -23 28
-25 12 -2 -2 -4 -31 -4 -37 0 -47 2 -33 8 20 7 21 15 23 145 l2 138 3 -120 c2
-66 5 -130 8 -142z m637 170 c17 -16 28 -37 27 -52 0 -14 -3 -20 -6 -13 -2 6
-13 12 -23 12 -10 0 -21 6 -23 13 -3 7 -6 5 -6 -5 -1 -25 -21 -23 -21 2 0 12
7 20 16 20 12 0 9 6 -11 22 -35 28 -59 15 -63 -36 -3 -32 0 -36 20 -37 l23 -2
-22 -4 c-26 -5 -29 -20 -11 -57 17 -39 53 -59 79 -45 11 6 23 8 26 5 3 -3 -7
-10 -23 -16 -44 -17 -83 6 -103 61 -9 24 -22 44 -28 44 -6 0 -15 3 -19 8 -11
11 -22 9 -27 -5 -2 -7 -3 0 -1 16 9 63 50 93 133 95 25 1 43 -7 63 -26z m446
8 c20 -18 22 -27 20 -108 -1 -60 -3 -71 -5 -35 -4 48 -10 57 -35 53 -5 0 -8 6
-8 14 0 8 -6 14 -12 13 -8 -2 -16 -27 -19 -63 -6 -52 -6 -48 -6 30 1 80 -1 90
-17 93 -15 3 -16 6 -5 13 23 14 62 10 87 -10z m276 -15 c33 -31 37 -39 34 -77
-3 -38 -6 -43 -30 -46 -16 -2 -28 1 -28 7 0 25 -19 7 -23 -22 -2 -18 -4 3 -5
47 0 57 2 73 8 58 12 -30 20 -29 20 2 0 17 -9 29 -30 40 -27 14 -33 14 -60 0
-16 -9 -30 -17 -30 -19 0 -3 -3 -13 -6 -23 -3 -10 2 -7 10 7 15 24 15 22 16
-47 0 -39 5 -84 10 -100 9 -26 9 -27 -5 -9 -8 11 -15 30 -15 43 0 13 -5 23
-11 23 -6 0 -17 7 -26 16 -9 8 -22 13 -29 10 -18 -7 -18 5 2 52 19 49 56 70
125 71 27 1 44 -7 73 -33z m268 17 c10 -9 18 -27 18 -40 0 -20 -5 -23 -35 -23
-19 0 -35 5 -35 11 0 5 -5 7 -11 3 -8 -4 -9 0 -4 15 4 12 2 21 -4 21 -18 0
-12 18 7 23 33 9 46 7 64 -10z m-98 -87 c-4 -78 -3 -96 11 -110 9 -9 12 -16 7
-16 -14 0 -30 22 -34 49 -4 30 -57 41 -59 13 -1 -9 -5 2 -9 24 -5 23 -7 50 -5
60 2 11 4 26 4 34 1 13 2 13 11 0 8 -13 10 -13 10 2 0 9 -12 21 -27 26 -24 9
-19 11 34 11 l63 1 -6 -94z m214 -48 c14 -14 16 -42 2 -33 -20 12 -54 14 -67
4 -19 -16 -17 6 3 25 18 19 45 21 62 4z m-923 -76 c-3 -3 -11 0 -18 7 -9 10
-8 11 6 5 10 -3 15 -9 12 -12z m-422 1 c-7 -2 -19 -2 -25 0 -7 3 -2 5 12 5 14
0 19 -2 13 -5z"/>
<path d="M1688 908 c5 -136 6 -139 25 -76 22 74 22 113 -3 138 -11 11 -21 20
-23 20 -1 0 -1 -37 1 -82z"/>
<path d="M1045 829 c-9 -14 -2 -20 14 -10 8 6 9 11 3 15 -6 3 -14 1 -17 -5z"/>
<path d="M1220 870 c0 -51 13 -67 25 -29 7 19 7 20 21 2 12 -17 13 -16 15 12
1 29 1 29 9 5 l7 -25 8 27 c11 42 1 54 -44 56 l-41 3 0 -51z"/>
</g>
</svg>
